# xmcd
#
# Track frame offsets:
#	150
#	21992
#	46526
#	71385
#	89638
#	112792
#	133147
#	148142
#	170948
#	192611
#	210115
#	240465
#	263077
#	284165
#	294260
#	310867
#	325883
#
# Disc length: 4526 seconds
#
# Revision: 1
# Processed by: cddbd v1.5.2PL0 Copyright (c) Steve Scherf et al.
# Submitted via: audiograbber 1.83.01
#
DISCID=0111ac11
DTITLE=Manuel Schmid - Deine Liebe und mein Lied
DYEAR=2017
DGENRE=DDR
TTITLE0=Worte sind wie Bilder
TTITLE1=Nach Süden
TTITLE2=Sagte mal ein Dichter
TTITLE3=Nachtigall
TTITLE4=Zu groß der Hut
TTITLE5=Sonntag
TTITLE6=Glaube mir
TTITLE7=Leben nur wieder leben
TTITLE8=Niemals mehr
TTITLE9=Asyl im Paradies
TTITLE10=Albatros
TTITLE11=Das Bild
TTITLE12=Am Abend mancher Tage
TTITLE13=Deine Liebe und mein Lied4
TTITLE14=Wie ein Fischlein unterm Eis
TTITLE15=Das Ende vom Lied
TTITLE16=Sommernacht
EXTD=
EXTT0=
EXTT1=
EXTT2=
EXTT3=
EXTT4=
EXTT5=
EXTT6=
EXTT7=
EXTT8=
EXTT9=
EXTT10=
EXTT11=
EXTT12=
EXTT13=
EXTT14=
EXTT15=
EXTT16=
PLAYORDER=
